<?xml version="1.0" encoding="UTF-8" standalone="no"?>
<svg
   width="1579.9714"
   height="300"
   viewBox="0 0 1579.9714 300"
   version="1.1"
   id="svg4"
   xmlns="http://www.w3.org/2000/svg"
   xmlns:svg="http://www.w3.org/2000/svg">
  <defs
     id="defs8" />
  <path
     fill="#FFF"
     fill-rule="evenodd"
     d="m 743.57074,118.98097 c 10.42371,-14.41787 27.33549,-23.30781 47.48332,-23.30781 22.35249,0 36.25809,10.40333 42.44236,25.75145 8.61679,-14.31672 25.44262,-25.75145 48.04497,-25.75145 31.04524,0 48.01499,17.86119 48.01499,53.2682 v 107.21276 h -50.1497 v -98.21175 c 0,-13.01953 -3.05616,-19.58285 -12.4225,-19.58285 -13.33594,0 -28.86056,17.16499 -28.86056,42.20239 v 75.59221 h -49.52208 v -98.21175 c 0,-12.46217 -2.78232,-19.58285 -12.42649,-19.58285 -13.60379,0 -28.54476,18.03574 -28.54476,42.20239 v 75.59221 H 697.17877 V 137.82597 c -8.92061,-1.42414 -17.95715,-2.35637 -26.9677,-2.9772 v -33.12799 c 24.6591,-2.703481 49.51808,-3.89555 74.32309,-2.887944 v 1.443974 c 0,4.52628 -0.18189,11.76993 -0.96342,18.70416 M 461.31128,40.336197 c 21.08126,0 42.32043,3.480998 62.48225,9.44729 l -8.04714,47.890999 C 497.06767,90.331663 478.6488,86.529341 458.49098,86.529341 c -39.24629,0 -64.26318,24.480049 -64.26318,64.667229 0,38.12635 20.11785,61.55714 58.62259,61.55714 6.93781,0 13.27997,-0.80529 18.5268,-2.39405 v -69.0646 h 51.90265 v 104.1126 c -23.73167,9.63175 -50.19168,14.16399 -75.75424,14.16399 -69.40806,0 -108.95417,-40.10586 -108.95417,-104.64416 0,-67.686081 46.78374,-114.591293 122.73985,-114.591293 M 590.25537,220.521 c 14.92499,0 25.41864,-13.39242 25.41864,-28.00667 v -2.83835 c -33.096,0.26777 -39.56409,9.39969 -39.56409,18.99376 0,6.7815 4.8031,11.85126 14.14545,11.85126 m 30.27171,17.35739 c -9.17246,13.3825 -26.25014,21.69326 -45.62043,21.69326 -30.56954,0 -46.93565,-18.0516 -46.93565,-43.75545 0,-40.1495 38.83854,-58.90921 87.70301,-59.28805 v -4.40133 c 0,-11.49027 -6.03235,-17.44863 -26.35207,-17.44863 -15.48465,0 -33.18595,4.87737 -46.71978,12.08333 l -4.09552,-42.61694 c 18.24098,-5.67472 38.85252,-9.445306 58.01695,-9.445306 54.25721,0 70.11363,20.421856 70.11363,56.804736 v 65.82756 c 9.01256,1.42414 15.79446,2.35439 24.89496,2.97918 v 33.20535 c -24.45922,2.69158 -46.86168,3.90745 -71.47282,2.88794 v -1.44595 c 0,-5.60927 0.004,-11.38316 0.46772,-17.0797 M 1011.339,95.01068 c 48.0529,0 69.1722,32.29097 69.1722,73.27154 0,7.48365 -0.8035,14.9078 -1.741,22.32203 h -92.49009 c 0.87747,18.57326 12.59039,29.29989 36.96569,29.29989 16.7479,0 31.7588,-3.46315 46.9876,-10.35374 l 4.7731,38.90982 c -18.5848,7.56696 -39.2383,11.11143 -59.2762,11.11143 -51.85466,0 -80.76719,-25.17426 -80.76719,-80.41602 0,-48.13298 27.08964,-84.14495 76.37589,-84.14495 m -24.63315,61.2021 h 43.81955 c 0.086,-15.77458 -8.0732,-23.70451 -20.4357,-23.70451 -12.32853,0 -21.65089,9.3382 -23.38385,23.70451 m 188.19035,-25.27145 c 21.2131,9.23307 43.032,22.88929 43.032,56.59845 0,41.74818 -33.8076,72.33733 -88.2827,72.33733 -15.1589,0 -30.0319,-1.56893 -44.8089,-4.98249 l 2.6863,-48.03183 c 14.2814,5.21456 30.6495,8.37621 45.8863,8.37621 17.5794,0 29.1784,-7.24563 29.1784,-20.86218 0,-13.86251 -15.0029,-19.37657 -25.6925,-23.5022 -4.945,-1.91008 -10.2238,-3.80827 -15.4986,-5.97819 -21.2792,-8.74911 -43.068,-22.10583 -43.068,-58.12573 0,-40.575942 32.0127,-67.057314 85.4604,-67.057314 13.3919,0 27.0037,1.523308 40.1357,4.000668 l -3.0321,45.13992 c -12.7503,-3.663478 -25.6606,-6.051582 -38.9805,-6.051582 -19.9579,0 -28.2369,8.390099 -28.2369,18.993758 0,12.80729 15.8504,18.75772 25.7144,22.79012 4.951,2.02315 10.2318,4.05621 15.5067,6.35506 m 134.3328,83.25833 v 40.69892 c -11.509,2.7729 -23.4658,4.67307 -35.3506,4.67307 -36.9257,0 -49.1264,-12.54349 -49.1264,-51.21332 v -70.26261 h -23.4938 V 98.739612 h 23.4938 V 53.425147 l 50.6454,-13.5511 v 58.865565 h 33.8316 v 39.356108 h -33.5158 v 59.38722 c 0,15.44135 3.7598,19.62251 14.4613,19.62251 6.3861,0 12.8942,-1.38248 19.0545,-2.90579 m 95.3524,23.67873 c -9.1785,13.3825 -26.2542,21.69326 -45.6245,21.69326 -30.5675,0 -46.9376,-18.0516 -46.9376,-43.75545 0,-40.1495 38.8405,-58.90921 87.701,-59.28805 v -4.40133 c 0,-11.49027 -6.0263,-17.44863 -26.354,-17.44863 -15.4747,0 -33.18,4.87737 -46.7098,12.08333 l -4.0956,-42.61694 c 18.235,-5.67472 38.8506,-9.445306 58.007,-9.445306 54.2612,0 70.1216,20.421856 70.1216,56.804736 v 65.82756 c 9.0106,1.42414 18.1431,2.35439 27.2496,2.97918 v 33.20535 c -24.4613,2.69158 -49.2203,3.90745 -73.8254,2.88794 v -1.44595 c 0,-5.60927 0,-11.38316 0.4677,-17.0797 M 1374.3077,220.521 c 14.919,0 25.4126,-13.39242 25.4126,-28.00667 v -2.83835 c -33.088,0.26777 -39.5581,9.39969 -39.5581,18.99376 0,6.7815 4.8031,11.85126 14.1455,11.85126 m 158.946,-100.02664 c 10.2438,-18.04763 25.3646,-26.763022 46.7177,-25.384507 l -2.6863,50.187867 c -33.8976,-7.70184 -39.3623,18.51177 -39.3623,45.66157 v 65.19483 h -50.9612 V 137.56415 c -9.0185,-1.42612 -18.149,-2.36034 -27.2575,-2.98712 V 101.3816 c 24.849,-2.701492 49.7819,-3.901494 74.7668,-2.893889 v 1.445954 c 0,5.208605 -0.3578,12.914405 -1.2172,20.560695 z M 300,150.00101 C 300,232.61872 232.61558,300 149.99899,300 67.3824,300 0,232.61872 0,150.00101 0,67.379258 67.3824,0 149.99899,0 232.61558,0 300,67.379258 300,150.00101 Z m -15.33958,-0.37673 c 0,-35.9125 -14.2117,-69.956258 -39.63986,-95.392506 C 219.5924,28.7935 185.56078,14.62225 149.66042,14.62225 108.89811,14.62225 71.12901,32.533 45.32468,63.955673 25.1306,88.647663 14.66042,118.57575 14.66042,149.62428 c 0,35.91249 14.21169,69.95423 39.63985,95.39452 25.42816,25.43423 59.46181,39.60345 95.36015,39.60345 35.90036,0 69.93198,-14.16922 95.36014,-39.60345 25.42816,-25.44029 39.63986,-59.48203 39.63986,-95.39452 z M 149.98133,192.91111 88.1893,237.00001 111.73726,165.59015 50,121.42618 l 76.3454,-0.0424 23.63593,-71.383744 23.63594,71.383744 76.34539,0.0424 -61.73892,44.16397 23.55128,71.40986 z"
     id="path2"
     style="fill:#0055b9;fill-opacity:1;stroke-width:10" />
</svg>
