<svg width="720" height="217" viewBox="0 0 720 217" fill="none" xmlns="http://www.w3.org/2000/svg">
<g clip-path="url(#clip0_1_2)">
<path d="M384.568 127.581V88.571L489.382 88.603C500.023 88.603 508.701 97.206 508.701 107.831V154.188C508.701 178.05 489.592 197.797 465.302 197.813L398.199 197.861C348.468 197.861 308.232 157.796 308.232 108.283C308.232 58.806 348.713 18.709 398.278 18.709H502.168V59.86H398.258C371.466 59.86 349.467 81.546 349.467 108.282C349.467 134.983 371.144 156.677 398.187 156.673H467.502V127.582L384.568 127.581ZM294.605 18.482L294.629 31.735V197.935H273.019C262.458 197.935 253.831 189.38 253.831 178.838V18.482H294.605ZM700.871 18.586C705.942 18.584 710.806 20.596 714.394 24.179C717.978 27.762 719.996 32.624 720 37.695V156.65C720 180.536 700.566 199.903 676.632 199.903H675.895C660.219 199.903 646.542 192.121 638.922 179.367L569.928 58.577C569.361 57.526 568.366 57.213 567.51 57.213C567.014 57.213 566.527 57.344 566.103 57.594C565.675 57.843 565.318 58.202 565.076 58.633C564.822 59.009 564.684 59.449 564.668 59.902L564.68 197.942H542.966C532.409 197.942 523.81 189.387 523.81 178.845V59.9C523.81 36.014 543.212 16.647 567.142 16.647H567.879C583.559 16.647 597.549 25.036 605.173 37.79L673.751 157.803C674.611 158.929 675.388 159.329 676.261 159.329C677.292 159.329 678.196 158.774 678.679 157.949C678.881 157.607 678.996 157.218 679.004 156.819L678.984 18.585H700.871V18.586Z" fill="white"/>
<path d="M48.708 69.069C38.016 70.239 28.251 71.836 19.629 73.807C24.46 61.516 31.778 50.356 41.124 41.027C50.47 31.697 61.643 24.399 73.942 19.589C71.972 28.2 70.374 37.945 69.193 48.617C61.054 53.982 54.085 60.939 48.708 69.069ZM147.935 48.383C146.69 37.766 145.041 28.085 143.047 19.521C155.389 24.316 166.604 31.614 175.986 40.957C185.368 50.3 192.713 61.485 197.559 73.807C188.928 71.837 179.168 70.239 168.479 69.069C163.094 60.93 156.115 53.967 147.963 48.6L147.935 48.383ZM69.192 168.162C70.369 178.838 71.967 188.579 73.941 197.19C61.615 192.37 50.42 185.051 41.062 175.692C31.703 166.333 24.384 155.139 19.564 142.813C28.056 144.775 37.698 146.401 48.465 147.666C48.544 147.678 48.616 147.682 48.695 147.698C54.076 155.833 61.049 162.794 69.192 168.162ZM168.717 147.666C179.473 146.409 189.114 144.788 197.61 142.825C192.778 155.179 185.433 166.395 176.042 175.764C166.651 185.133 155.417 192.451 143.051 197.254C145.045 188.699 146.69 179.017 147.935 168.408C147.947 168.329 147.951 168.253 147.967 168.174C156.122 162.806 163.103 155.838 168.487 147.693C168.566 147.677 168.638 147.677 168.717 147.666ZM217.179 90.672V125.912C200.488 133.615 175.611 136.695 167.214 137.663C165.188 138.048 163.293 138.226 161.465 138.226L134.717 108.393L161.461 78.552C163.003 78.552 164.625 78.703 166.417 79.008C175.012 79.924 200.31 82.878 217.179 90.672ZM55.729 78.553L82.466 108.394L55.729 138.227C53.893 138.227 51.994 138.049 49.973 137.664C41.576 136.689 16.695 133.616 0.00100708 125.905V90.68C16.874 82.878 42.171 79.924 50.762 79.009C52.401 78.716 54.063 78.564 55.729 78.553ZM78.703 161.173L108.595 134.476L138.487 161.169C138.487 162.993 138.297 164.892 137.916 166.91C136.941 175.287 133.848 200.121 126.13 216.779H90.838C83.024 199.946 80.066 174.692 79.147 166.113C78.859 164.481 78.709 162.827 78.699 161.169L78.703 161.173ZM90.838 0H126.122C133.845 16.671 136.937 41.5 137.912 49.881C138.293 51.899 138.479 53.782 138.479 55.614L108.587 82.315L78.695 55.614C78.695 54.084 78.846 52.462 79.147 50.674C80.067 42.091 83.024 16.841 90.838 0Z" fill="#BF1313"/>
</g>
<defs>
<clipPath id="clip0_1_2">
<rect width="720" height="216.779" fill="white"/>
</clipPath>
</defs>
</svg>
