<svg xmlns:xlink="http://www.w3.org/1999/xlink" xmlns="http://www.w3.org/2000/svg" viewBox="0 0 526 141" fill="var(--theme-color-header-logo, #fff)" width="526"  height="141" ><path d="M110.727 1.094L76.277.086c-1.902 0-3.543 1.336-3.934 3.195L59.34 76.313a2.01 2.01 0 0 1-1.965 1.602c-.949 0-1.77-.668-1.969-1.602L42.402 3.281a4.02 4.02 0 0 0-3.93-3.195H4.02A4.01 4.01 0 0 0 .902 1.574a4.03 4.03 0 0 0-.816 3.363l27.789 132.387a4.02 4.02 0 0 0 3.934 3.199h51.137a4.02 4.02 0 0 0 3.93-3.199L114.664 5.941a4.03 4.03 0 0 0-.812-3.363c-.766-.941-1.914-1.488-3.125-1.484zM522.352 0h-69.535a4.02 4.02 0 0 0-3.93 3.195l-6.859 32.66c-.25 1.188.047 2.422.813 3.363a4.01 4.01 0 0 0 3.117 1.488h22.117c1.211 0 2.359.547 3.121 1.488a4.03 4.03 0 0 1 .813 3.363l-18.898 90.027a4.04 4.04 0 0 0 .813 3.363c.766.941 1.91 1.488 3.121 1.488h37.523a4.02 4.02 0 0 0 3.934-3.195L526.285 4.848a4.03 4.03 0 0 0-.812-3.359A4.02 4.02 0 0 0 522.352 0zM426.61.086h-33.621a3.52 3.52 0 0 0-3.516 3.52v44.105a3.02 3.02 0 0 1-3.016 3.016h-4.141c-1.664 0-3.012-1.352-3.012-3.016V3.605c0-1.941-1.578-3.52-3.52-3.52h-33.621a3.52 3.52 0 0 0-3.516 3.52v82.297a3.52 3.52 0 0 0 3.516 3.52h44.293a3.02 3.02 0 0 1 3.016 3.02V137a3.52 3.52 0 0 0 3.516 3.52h33.621a3.52 3.52 0 0 0 2.488-1.031 3.53 3.53 0 0 0 1.027-2.488V3.605a3.53 3.53 0 0 0-1.027-2.488 3.52 3.52 0 0 0-2.488-1.031zM323.504 99.945h-38.715c-.93 0-1.824-.371-2.484-1.031a3.52 3.52 0 0 1-1.031-2.488v-3.465a3.52 3.52 0 0 1 3.516-3.52h38.645a3.52 3.52 0 0 0 3.52-3.52V3.668a3.52 3.52 0 0 0-1.031-2.488 3.5 3.5 0 0 0-2.488-1.031h-76.258a3.49 3.49 0 0 0-2.484 1.031 3.52 3.52 0 0 0-1.031 2.488v33.664a3.52 3.52 0 0 0 1.031 2.488 3.51 3.51 0 0 0 2.484 1.031h35.609a3.51 3.51 0 0 1 2.484 1.031 3.52 3.52 0 0 1 1.031 2.488v2.883a3.52 3.52 0 0 1-3.5 3.523l-38.672.156c-1.937.008-3.5 1.582-3.5 3.52v82.676c0 .938.367 1.832 1.027 2.492a3.52 3.52 0 0 0 2.488 1.031h79.363a3.5 3.5 0 0 0 2.484-1.031 3.52 3.52 0 0 0 1.031-2.492v-33.664a3.52 3.52 0 0 0-1.031-2.488 3.5 3.5 0 0 0-2.488-1.031zm-98.066-49.262h-46.176a3.52 3.52 0 0 0-2.488 1.031c-.66.66-1.027 1.555-1.027 2.488v31.641c0 .934.367 1.828 1.027 2.488a3.52 3.52 0 0 0 2.488 1.031h8.543a3.52 3.52 0 0 1 3.516 3.52v3.414a3.53 3.53 0 0 1-1.027 2.488 3.52 3.52 0 0 1-2.488 1.031H169.23c-.93 0-1.824-.371-2.484-1.031a3.52 3.52 0 0 1-1.031-2.488V44.313a3.52 3.52 0 0 1 1.031-2.488c.66-.66 1.555-1.031 2.484-1.031h53.488a3.52 3.52 0 0 0 3.516-3.523V3.605a3.52 3.52 0 0 0-3.516-3.52h-94.141a3.51 3.51 0 0 0-2.484 1.031 3.52 3.52 0 0 0-1.031 2.488V137a3.52 3.52 0 0 0 1.031 2.488 3.51 3.51 0 0 0 2.484 1.031h96.684a3.52 3.52 0 0 0 3.516-3.512l.176-82.797a3.52 3.52 0 0 0-3.515-3.527zm0 0"></path></svg>